<?xml version="1.0" encoding="UTF-8"?>
<svg version="1.1" xmlns="http://www.w3.org/2000/svg" width="1200" height="1200">
<path d="M0 0 C396 0 792 0 1200 0 C1200 396 1200 792 1200 1200 C804 1200 408 1200 0 1200 C0 804 0 408 0 0 Z " fill="#020202" transform="translate(0,0)"/>
<path d="M0 0 C5.18402515 3.29278719 9.4492198 7.08290619 13.76233608 11.4392814 C14.4939271 12.16619245 15.22551812 12.8931035 15.97927856 13.64204216 C18.41446533 16.0653191 20.83885423 18.49910975 23.26335841 20.93307108 C25.01272265 22.67836793 26.76272396 24.42302642 28.51331264 26.16709512 C32.76359698 30.40513873 37.00682306 34.65013018 41.2466282 38.89864861 C44.6929391 42.35174744 48.14218254 45.80189143 51.59351856 49.24996752 C52.33161487 49.98737429 52.33161487 49.98737429 53.08462223 50.73967816 C54.08437208 51.7384688 55.08412864 52.73725272 56.08389183 53.73602999 C65.44593167 63.08952648 74.79877377 72.45217653 84.14847007 81.81800932 C92.16724275 89.8501926 100.19386003 97.87446622 108.22624904 105.89303201 C117.56272433 115.21344728 126.89430683 124.53871671 136.21815014 133.87176991 C137.21255988 134.86713526 138.20697587 135.86249437 139.20139819 136.85784715 C139.69062778 137.34753957 140.17985737 137.83723199 140.6839121 138.34176357 C144.12830414 141.7887436 147.57616031 145.23223496 151.02537662 148.67438692 C155.66752805 153.30723909 160.30166062 157.9480062 164.93048602 162.59417909 C166.63108869 164.29875115 168.33425436 166.00077054 170.04014522 167.70005029 C172.36657375 170.01829196 174.68358136 172.34555914 176.99842006 174.67536539 C177.67681337 175.34706654 178.35520669 176.01876769 179.05415738 176.71082342 C183.5343196 181.24741826 187.46330485 185.79676624 187.56291896 192.49581522 C187.37139923 197.65814251 185.4155989 201.26174091 182.06291896 205.12081522 C177.09845792 208.99309483 172.86161641 210.68984052 166.60641986 210.48016161 C156.23130704 209.01436329 147.19671667 196.65925353 140.19914943 189.613491 C138.71229795 188.1274313 137.22479239 186.6420258 135.73668605 185.15722269 C131.71351099 181.13916315 127.69969847 177.11186997 123.68767244 173.08268207 C119.47867321 168.85859567 115.26151907 164.6426655 111.04537135 160.42571634 C103.96757348 153.34423091 96.89542655 146.25714316 89.82707912 139.16622537 C80.76738679 130.07766217 71.69845551 120.99837705 62.6265462 111.92201036 C54.81064546 104.10212212 46.99900518 96.27798185 39.18804342 88.4531607 C36.68501461 85.94604388 34.18140754 83.43950562 31.67772228 80.93304437 C27.73704372 76.98745157 23.79903921 73.03920807 19.86305171 69.08893579 C18.42198291 67.64336683 16.98009049 66.19861835 15.53729564 64.75477213 C13.56075758 62.77647122 11.58674738 60.79570781 9.61464626 58.81298441 C9.01683526 58.21253124 8.41902426 57.61207808 7.80309778 56.99342936 C4.15564274 53.30344434 0.68827748 49.52708452 -2.52866238 45.4493503 C-4.31787622 43.76161822 -5.50663074 43.42737596 -7.93708104 43.12081522 C-10.37036714 45.06782619 -12.44066478 46.98558154 -14.60379857 49.20644754 C-15.27268546 49.87317901 -15.94157235 50.53991047 -16.63072854 51.22684592 C-18.88276357 53.47766431 -21.11639801 55.74591346 -23.35065526 58.0143699 C-24.95615752 59.62618993 -26.5627825 61.23689233 -28.17044896 62.84655374 C-31.63719942 66.32235187 -35.09591764 69.80588771 -38.54874104 73.29552072 C-44.00714556 78.81183445 -49.48335329 84.31023671 -54.96225804 89.80617899 C-62.64154273 97.51300443 -70.31309999 105.22742163 -77.97760838 112.94894022 C-78.46423334 113.43917961 -78.95085829 113.929419 -79.45222946 114.43451414 C-80.43706221 115.42667091 -81.42189334 116.4188293 -82.40672285 117.4109893 C-83.13905301 118.14876975 -83.13905301 118.14876975 -83.88617772 118.90145487 C-84.37479706 119.39371625 -84.8634164 119.88597764 -85.36684238 120.39315604 C-90.78794095 125.8543852 -96.21142288 131.31324469 -101.63581151 136.77120584 C-102.12123547 137.25963963 -102.60665943 137.74807342 -103.10679321 138.25130823 C-111.20394137 146.39820797 -119.30716039 154.5390463 -127.41382676 162.67647475 C-132.85892286 168.1433863 -138.29585608 173.61825251 -143.72649807 179.0995211 C-147.10697477 182.50873696 -150.4935723 185.91182294 -153.88177174 189.31336206 C-155.45256556 190.89297199 -157.02074573 192.47518589 -158.58611363 194.06017298 C-160.72266254 196.22283581 -162.86829738 198.37606624 -165.01639622 200.52724832 C-165.63430622 201.15730744 -166.25221621 201.78736655 -166.88885075 202.43651837 C-171.31940334 206.845026 -175.82043015 210.54628925 -182.37458104 210.55831522 C-187.25626441 210.37751213 -189.99359627 208.98177476 -193.93708104 206.12081522 C-197.69483776 202.05837552 -200.21999652 198.36687345 -200.24958104 192.74581522 C-200.26633885 192.01620584 -200.28309666 191.28659647 -200.30036229 190.53487772 C-199.2545103 183.58502258 -194.4982717 179.25503186 -189.73850316 174.54128641 C-189.00034474 173.79844801 -188.26218631 173.05560962 -187.50165945 172.29026097 C-185.02840328 169.80504669 -182.5445715 167.33068395 -180.0606162 164.85616678 C-178.28443451 163.07591982 -176.50889164 161.29503532 -174.73394078 159.51356119 C-170.41308661 155.18044441 -166.08525264 150.85440948 -161.75391574 146.53177407 C-158.23402226 143.01865919 -154.71707206 139.50262289 -151.20219868 135.98448557 C-150.70170838 135.48353557 -150.20121808 134.98258557 -149.68556141 134.46645527 C-148.66881096 133.44874563 -147.65206724 132.43102928 -146.63533019 131.41330627 C-137.10494961 121.87437452 -127.56540129 112.34465381 -118.02268635 102.81806353 C-109.83495929 94.6437435 -101.65513549 86.46158405 -93.48102635 78.27364725 C-83.98667092 68.76323828 -74.48746909 59.25771362 -64.98047739 49.75993508 C-63.96684362 48.74725695 -62.9532161 47.73457255 -61.93959492 46.72188181 C-61.44087949 46.2236292 -60.94216406 45.72537659 -60.42833603 45.21202542 C-56.91428326 41.70056291 -53.40372367 38.18563126 -49.89449757 34.6693458 C-45.17220025 29.93775773 -40.44202135 25.2141906 -35.70640057 20.49593157 C-33.96754426 18.76104903 -32.23124883 17.02359547 -30.49768323 15.28342623 C-28.13518666 12.91275991 -25.76368933 10.55148422 -23.3896262 8.19240946 C-22.70197513 7.49806622 -22.01432405 6.80372298 -21.30583507 6.08833903 C-15.46008837 0.31420635 -8.26602988 -3.75171071 0 0 Z " fill="#BABABA" transform="translate(605.9370810389519,617.879184782505)"/>
<path d="M0 0 C5.18402515 3.29278719 9.4492198 7.08290619 13.76233608 11.4392814 C14.4939271 12.16619245 15.22551812 12.8931035 15.97927856 13.64204216 C18.41446533 16.0653191 20.83885423 18.49910975 23.26335841 20.93307108 C25.01272265 22.67836793 26.76272396 24.42302642 28.51331264 26.16709512 C32.76359698 30.40513873 37.00682306 34.65013018 41.2466282 38.89864861 C44.6929391 42.35174744 48.14218254 45.80189143 51.59351856 49.24996752 C52.33161487 49.98737429 52.33161487 49.98737429 53.08462223 50.73967816 C54.08437208 51.7384688 55.08412864 52.73725272 56.08389183 53.73602999 C65.44593167 63.08952648 74.79877377 72.45217653 84.14847007 81.81800932 C92.16724275 89.8501926 100.19386003 97.87446622 108.22624904 105.89303201 C117.56272433 115.21344728 126.89430683 124.53871671 136.21815014 133.87176991 C137.21255988 134.86713526 138.20697587 135.86249437 139.20139819 136.85784715 C139.69062778 137.34753957 140.17985737 137.83723199 140.6839121 138.34176357 C144.12830414 141.7887436 147.57616031 145.23223496 151.02537662 148.67438692 C155.66752805 153.30723909 160.30166062 157.9480062 164.93048602 162.59417909 C166.63108869 164.29875115 168.33425436 166.00077054 170.04014522 167.70005029 C172.36657375 170.01829196 174.68358136 172.34555914 176.99842006 174.67536539 C177.67681337 175.34706654 178.35520669 176.01876769 179.05415738 176.71082342 C183.5343196 181.24741826 187.46330485 185.79676624 187.56291896 192.49581522 C187.37139923 197.65814251 185.4155989 201.26174091 182.06291896 205.12081522 C177.09845792 208.99309483 172.86161641 210.68984052 166.60641986 210.48016161 C156.23130704 209.01436329 147.19671667 196.65925353 140.19914943 189.613491 C138.71229795 188.1274313 137.22479239 186.6420258 135.73668605 185.15722269 C131.71351099 181.13916315 127.69969847 177.11186997 123.68767244 173.08268207 C119.47867321 168.85859567 115.26151907 164.6426655 111.04537135 160.42571634 C103.96757348 153.34423091 96.89542655 146.25714316 89.82707912 139.16622537 C80.76738679 130.07766217 71.69845551 120.99837705 62.6265462 111.92201036 C54.81064546 104.10212212 46.99900518 96.27798185 39.18804342 88.4531607 C36.68501461 85.94604388 34.18140754 83.43950562 31.67772228 80.93304437 C27.73704372 76.98745157 23.79903921 73.03920807 19.86305171 69.08893579 C18.42198291 67.64336683 16.98009049 66.19861835 15.53729564 64.75477213 C13.56075758 62.77647122 11.58674738 60.79570781 9.61464626 58.81298441 C9.01683526 58.21253124 8.41902426 57.61207808 7.80309778 56.99342936 C4.15564274 53.30344434 0.68827748 49.52708452 -2.52866238 45.4493503 C-4.31787622 43.76161822 -5.50663074 43.42737596 -7.93708104 43.12081522 C-10.37036714 45.06782619 -12.44066478 46.98558154 -14.60379857 49.20644754 C-15.27268546 49.87317901 -15.94157235 50.53991047 -16.63072854 51.22684592 C-18.88276357 53.47766431 -21.11639801 55.74591346 -23.35065526 58.0143699 C-24.95615752 59.62618993 -26.5627825 61.23689233 -28.17044896 62.84655374 C-31.63719942 66.32235187 -35.09591764 69.80588771 -38.54874104 73.29552072 C-44.00714556 78.81183445 -49.48335329 84.31023671 -54.96225804 89.80617899 C-62.64154273 97.51300443 -70.31309999 105.22742163 -77.97760838 112.94894022 C-78.46423334 113.43917961 -78.95085829 113.929419 -79.45222946 114.43451414 C-80.43706221 115.42667091 -81.42189334 116.4188293 -82.40672285 117.4109893 C-83.13905301 118.14876975 -83.13905301 118.14876975 -83.88617772 118.90145487 C-84.37479706 119.39371625 -84.8634164 119.88597764 -85.36684238 120.39315604 C-90.78794095 125.8543852 -96.21142288 131.31324469 -101.63581151 136.77120584 C-102.12123547 137.25963963 -102.60665943 137.74807342 -103.10679321 138.25130823 C-111.20394137 146.39820797 -119.30716039 154.5390463 -127.41382676 162.67647475 C-132.85892286 168.1433863 -138.29585608 173.61825251 -143.72649807 179.0995211 C-147.10697477 182.50873696 -150.4935723 185.91182294 -153.88177174 189.31336206 C-155.45256556 190.89297199 -157.02074573 192.47518589 -158.58611363 194.06017298 C-160.72266254 196.22283581 -162.86829738 198.37606624 -165.01639622 200.52724832 C-165.63430622 201.15730744 -166.25221621 201.78736655 -166.88885075 202.43651837 C-171.31940334 206.845026 -175.82043015 210.54628925 -182.37458104 210.55831522 C-187.25626441 210.37751213 -189.99359627 208.98177476 -193.93708104 206.12081522 C-197.69483776 202.05837552 -200.21999652 198.36687345 -200.24958104 192.74581522 C-200.26633885 192.01620584 -200.28309666 191.28659647 -200.30036229 190.53487772 C-199.2545103 183.58502258 -194.4982717 179.25503186 -189.73850316 174.54128641 C-189.00034474 173.79844801 -188.26218631 173.05560962 -187.50165945 172.29026097 C-185.02840328 169.80504669 -182.5445715 167.33068395 -180.0606162 164.85616678 C-178.28443451 163.07591982 -176.50889164 161.29503532 -174.73394078 159.51356119 C-170.41308661 155.18044441 -166.08525264 150.85440948 -161.75391574 146.53177407 C-158.23402226 143.01865919 -154.71707206 139.50262289 -151.20219868 135.98448557 C-150.70170838 135.48353557 -150.20121808 134.98258557 -149.68556141 134.46645527 C-148.66881096 133.44874563 -147.65206724 132.43102928 -146.63533019 131.41330627 C-137.10494961 121.87437452 -127.56540129 112.34465381 -118.02268635 102.81806353 C-109.83495929 94.6437435 -101.65513549 86.46158405 -93.48102635 78.27364725 C-83.98667092 68.76323828 -74.48746909 59.25771362 -64.98047739 49.75993508 C-63.96684362 48.74725695 -62.9532161 47.73457255 -61.93959492 46.72188181 C-61.44087949 46.2236292 -60.94216406 45.72537659 -60.42833603 45.21202542 C-56.91428326 41.70056291 -53.40372367 38.18563126 -49.89449757 34.6693458 C-45.17220025 29.93775773 -40.44202135 25.2141906 -35.70640057 20.49593157 C-33.96754426 18.76104903 -32.23124883 17.02359547 -30.49768323 15.28342623 C-28.13518666 12.91275991 -25.76368933 10.55148422 -23.3896262 8.19240946 C-22.70197513 7.49806622 -22.01432405 6.80372298 -21.30583507 6.08833903 C-15.46008837 0.31420635 -8.26602988 -3.75171071 0 0 Z " fill="#BABABA" transform="translate(605.9370810389519,371.87918478250504)"/>
</svg>
